# xmcd
# 
# Track frame offsets:
#     150
#     21270
#     37787
#     62780
#     91497
#     119227
#     139485
#     152627
#     172475
#     198302
#     218740
#     235900
#     257040
#     275520
# 
# Disc length: 3883
# 
# Revision: 3
# Processed by: cddbd v1.5.2PL0 Copyright (c) Steve Scherf et al.
# Submitted via: BonkEnc v1.0.6
# 
DISCID=d60f290e
DTITLE=Koko Taylor - Force of Nature
DYEAR=1993
DGENRE=
TTITLE0=Mother Nature
TTITLE1=If I Can't Be First
TTITLE2=Hound Dog
TTITLE3=Born Under A Bad Sign
TTITLE4=Let the Juke Joint Jump
TTITLE5=63 Year Old Mama
TTITLE6=Don't Put Your Hands on Me
TTITLE7=Bad Case of Loving You
TTITLE8=Fish in Dirty Water
TTITLE9=Tit for Tat
TTITLE10=Put the Pot On
TTITLE11=Nothing Takes the Place of You
TTITLE12=Spellbound
TTITLE13=Greed Man
EXTD=
EXTT0=
EXTT1=
EXTT2=
EXTT3=
EXTT4=
EXTT5=
EXTT6=
EXTT7=
EXTT8=
EXTT9=
EXTT10=
EXTT11=
EXTT12=
EXTT13=
PLAYORDER=
